<svg width="348" height="149" viewBox="0 0 348 149" fill="none" xmlns="http://www.w3.org/2000/svg">
<rect x="1" y="40" width="346" height="108" rx="22" fill="white" stroke="black" stroke-linejoin="round"/>
<path d="M24.8182 62.3636V74H23.4091V62.3636H24.8182ZM31.0071 74.1818C30.1889 74.1818 29.4844 73.9886 28.8935 73.6023C28.3026 73.2159 27.848 72.6837 27.5298 72.0057C27.2116 71.3277 27.0526 70.553 27.0526 69.6818C27.0526 68.7955 27.2154 68.0133 27.5412 67.3352C27.8707 66.6534 28.3291 66.1212 28.9162 65.7386C29.5071 65.3523 30.1965 65.1591 30.9844 65.1591C31.598 65.1591 32.151 65.2727 32.6435 65.5C33.1359 65.7273 33.5393 66.0455 33.8537 66.4545C34.1681 66.8636 34.3632 67.3409 34.4389 67.8864H33.098C32.9957 67.4886 32.7685 67.1364 32.4162 66.8295C32.0677 66.5189 31.598 66.3636 31.0071 66.3636C30.4844 66.3636 30.026 66.5 29.6321 66.7727C29.242 67.0417 28.937 67.4223 28.7173 67.9148C28.5014 68.4034 28.3935 68.9773 28.3935 69.6364C28.3935 70.3106 28.4995 70.8977 28.7116 71.3977C28.9276 71.8977 29.2306 72.286 29.6207 72.5625C30.0147 72.839 30.4768 72.9773 31.0071 72.9773C31.3556 72.9773 31.6719 72.9167 31.956 72.7955C32.2401 72.6742 32.4806 72.5 32.6776 72.2727C32.8745 72.0455 33.0147 71.7727 33.098 71.4545H34.4389C34.3632 71.9697 34.1757 72.4337 33.8764 72.8466C33.581 73.2557 33.1889 73.5814 32.7003 73.8239C32.2154 74.0625 31.651 74.1818 31.0071 74.1818ZM37.7401 68.75V74H36.3991V62.3636H37.7401V66.6364H37.8537C38.0582 66.1856 38.3651 65.8277 38.7741 65.5625C39.187 65.2936 39.7363 65.1591 40.4219 65.1591C41.0166 65.1591 41.5374 65.2784 41.9844 65.517C42.4313 65.7519 42.7779 66.1136 43.0241 66.6023C43.2741 67.0871 43.3991 67.7045 43.3991 68.4545V74H42.0582V68.5455C42.0582 67.8523 41.8783 67.3163 41.5185 66.9375C41.1624 66.5549 40.6681 66.3636 40.0355 66.3636C39.5961 66.3636 39.2022 66.4564 38.8537 66.642C38.509 66.8277 38.2363 67.0985 38.0355 67.4545C37.8385 67.8106 37.7401 68.2424 37.7401 68.75ZM50.5341 74V62.3636H51.875V66.6591H51.9886C52.0871 66.5076 52.2235 66.3144 52.3977 66.0795C52.5758 65.8409 52.8295 65.6288 53.1591 65.4432C53.4924 65.2538 53.9432 65.1591 54.5114 65.1591C55.2462 65.1591 55.8939 65.3428 56.4545 65.7102C57.0152 66.0777 57.4527 66.5985 57.767 67.2727C58.0814 67.947 58.2386 68.7424 58.2386 69.6591C58.2386 70.5833 58.0814 71.3845 57.767 72.0625C57.4527 72.7367 57.017 73.2595 56.4602 73.6307C55.9034 73.9981 55.2614 74.1818 54.5341 74.1818C53.9735 74.1818 53.5246 74.089 53.1875 73.9034C52.8504 73.714 52.5909 73.5 52.4091 73.2614C52.2273 73.0189 52.0871 72.8182 51.9886 72.6591H51.8295V74H50.5341ZM51.8523 69.6364C51.8523 70.2955 51.9489 70.8769 52.142 71.3807C52.3352 71.8807 52.6174 72.2727 52.9886 72.5568C53.3598 72.8371 53.8144 72.9773 54.3523 72.9773C54.9129 72.9773 55.3807 72.8295 55.7557 72.5341C56.1345 72.2348 56.4186 71.8333 56.608 71.3295C56.8011 70.822 56.8977 70.2576 56.8977 69.6364C56.8977 69.0227 56.803 68.4697 56.6136 67.9773C56.428 67.4811 56.1458 67.089 55.767 66.8011C55.392 66.5095 54.9205 66.3636 54.3523 66.3636C53.8068 66.3636 53.3485 66.5019 52.9773 66.7784C52.6061 67.0511 52.3258 67.4337 52.1364 67.9261C51.947 68.4148 51.8523 68.9848 51.8523 69.6364ZM63.9489 74.1818C63.108 74.1818 62.3826 73.9962 61.7727 73.625C61.1667 73.25 60.6989 72.7273 60.3693 72.0568C60.0436 71.3826 59.8807 70.5985 59.8807 69.7045C59.8807 68.8106 60.0436 68.0227 60.3693 67.3409C60.6989 66.6553 61.1572 66.1212 61.7443 65.7386C62.3352 65.3523 63.0246 65.1591 63.8125 65.1591C64.267 65.1591 64.7159 65.2348 65.1591 65.3864C65.6023 65.5379 66.0057 65.7841 66.3693 66.125C66.733 66.4621 67.0227 66.9091 67.2386 67.4659C67.4545 68.0227 67.5625 68.7083 67.5625 69.5227V70.0909H60.8352V68.9318H66.1989C66.1989 68.4394 66.1004 68 65.9034 67.6136C65.7102 67.2273 65.4337 66.9223 65.0739 66.6989C64.7178 66.4754 64.2973 66.3636 63.8125 66.3636C63.2784 66.3636 62.8163 66.4962 62.4261 66.7614C62.0398 67.0227 61.7424 67.3636 61.5341 67.7841C61.3258 68.2045 61.2216 68.6553 61.2216 69.1364V69.9091C61.2216 70.5682 61.3352 71.1269 61.5625 71.5852C61.7936 72.0398 62.1136 72.3864 62.5227 72.625C62.9318 72.8598 63.4072 72.9773 63.9489 72.9773C64.3011 72.9773 64.6193 72.928 64.9034 72.8295C65.1913 72.7273 65.4394 72.5758 65.6477 72.375C65.8561 72.1705 66.017 71.9167 66.1307 71.6136L67.4261 71.9773C67.2898 72.4167 67.0606 72.803 66.7386 73.1364C66.4167 73.4659 66.0189 73.7235 65.5455 73.9091C65.072 74.0909 64.5398 74.1818 63.9489 74.1818ZM69.6023 74V65.2727H70.9432V74H69.6023ZM70.2841 63.8182C70.0227 63.8182 69.7973 63.7292 69.608 63.5511C69.4223 63.3731 69.3295 63.1591 69.3295 62.9091C69.3295 62.6591 69.4223 62.4451 69.608 62.267C69.7973 62.089 70.0227 62 70.2841 62C70.5455 62 70.7689 62.089 70.9545 62.267C71.1439 62.4451 71.2386 62.6591 71.2386 62.9091C71.2386 63.1591 71.1439 63.3731 70.9545 63.5511C70.7689 63.7292 70.5455 63.8182 70.2841 63.8182ZM76.9446 74.1818C76.1264 74.1818 75.4219 73.9886 74.831 73.6023C74.2401 73.2159 73.7855 72.6837 73.4673 72.0057C73.1491 71.3277 72.9901 70.553 72.9901 69.6818C72.9901 68.7955 73.1529 68.0133 73.4787 67.3352C73.8082 66.6534 74.2666 66.1212 74.8537 65.7386C75.4446 65.3523 76.134 65.1591 76.9219 65.1591C77.5355 65.1591 78.0885 65.2727 78.581 65.5C79.0734 65.7273 79.4768 66.0455 79.7912 66.4545C80.1056 66.8636 80.3007 67.3409 80.3764 67.8864H79.0355C78.9332 67.4886 78.706 67.1364 78.3537 66.8295C78.0052 66.5189 77.5355 66.3636 76.9446 66.3636C76.4219 66.3636 75.9635 66.5 75.5696 66.7727C75.1795 67.0417 74.8745 67.4223 74.6548 67.9148C74.4389 68.4034 74.331 68.9773 74.331 69.6364C74.331 70.3106 74.437 70.8977 74.6491 71.3977C74.8651 71.8977 75.1681 72.286 75.5582 72.5625C75.9522 72.839 76.4143 72.9773 76.9446 72.9773C77.2931 72.9773 77.6094 72.9167 77.8935 72.7955C78.1776 72.6742 78.4181 72.5 78.6151 72.2727C78.812 72.0455 78.9522 71.7727 79.0355 71.4545H80.3764C80.3007 71.9697 80.1132 72.4337 79.8139 72.8466C79.5185 73.2557 79.1264 73.5814 78.6378 73.8239C78.1529 74.0625 77.5885 74.1818 76.9446 74.1818ZM83.6776 68.75V74H82.3366V62.3636H83.6776V66.6364H83.7912C83.9957 66.1856 84.3026 65.8277 84.7116 65.5625C85.1245 65.2936 85.6738 65.1591 86.3594 65.1591C86.9541 65.1591 87.4749 65.2784 87.9219 65.517C88.3688 65.7519 88.7154 66.1136 88.9616 66.6023C89.2116 67.0871 89.3366 67.7045 89.3366 68.4545V74H87.9957V68.5455C87.9957 67.8523 87.8158 67.3163 87.456 66.9375C87.0999 66.5549 86.6056 66.3636 85.973 66.3636C85.5336 66.3636 85.1397 66.4564 84.7912 66.642C84.4465 66.8277 84.1738 67.0985 83.973 67.4545C83.776 67.8106 83.6776 68.2424 83.6776 68.75ZM95.5852 65.2727V66.4091H91.0625V65.2727H95.5852ZM92.3807 63.1818H93.7216V71.5C93.7216 71.8788 93.7765 72.1629 93.8864 72.3523C94 72.5379 94.1439 72.6629 94.3182 72.7273C94.4962 72.7879 94.6837 72.8182 94.8807 72.8182C95.0284 72.8182 95.1496 72.8106 95.2443 72.7955C95.339 72.7765 95.4148 72.7614 95.4716 72.75L95.7443 73.9545C95.6534 73.9886 95.5265 74.0227 95.3636 74.0568C95.2008 74.0947 94.9943 74.1136 94.7443 74.1136C94.3655 74.1136 93.9943 74.0322 93.6307 73.8693C93.2708 73.7064 92.9716 73.4583 92.733 73.125C92.4981 72.7917 92.3807 72.3712 92.3807 71.8636V63.1818ZM101.168 74.1818C100.327 74.1818 99.6013 73.9962 98.9915 73.625C98.3854 73.25 97.9176 72.7273 97.5881 72.0568C97.2623 71.3826 97.0994 70.5985 97.0994 69.7045C97.0994 68.8106 97.2623 68.0227 97.5881 67.3409C97.9176 66.6553 98.3759 66.1212 98.9631 65.7386C99.554 65.3523 100.243 65.1591 101.031 65.1591C101.486 65.1591 101.935 65.2348 102.378 65.3864C102.821 65.5379 103.224 65.7841 103.588 66.125C103.952 66.4621 104.241 66.9091 104.457 67.4659C104.673 68.0227 104.781 68.7083 104.781 69.5227V70.0909H98.054V68.9318H103.418C103.418 68.4394 103.319 68 103.122 67.6136C102.929 67.2273 102.652 66.9223 102.293 66.6989C101.937 66.4754 101.516 66.3636 101.031 66.3636C100.497 66.3636 100.035 66.4962 99.6449 66.7614C99.2585 67.0227 98.9612 67.3636 98.7528 67.7841C98.5445 68.2045 98.4403 68.6553 98.4403 69.1364V69.9091C98.4403 70.5682 98.554 71.1269 98.7812 71.5852C99.0123 72.0398 99.3324 72.3864 99.7415 72.625C100.151 72.8598 100.626 72.9773 101.168 72.9773C101.52 72.9773 101.838 72.928 102.122 72.8295C102.41 72.7273 102.658 72.5758 102.866 72.375C103.075 72.1705 103.236 71.9167 103.349 71.6136L104.645 71.9773C104.509 72.4167 104.279 72.803 103.957 73.1364C103.635 73.4659 103.238 73.7235 102.764 73.9091C102.291 74.0909 101.759 74.1818 101.168 74.1818ZM108.821 72.4091L108.73 73.0227C108.666 73.4545 108.567 73.9167 108.435 74.4091C108.306 74.9015 108.171 75.3655 108.031 75.8011C107.891 76.2367 107.776 76.5833 107.685 76.8409H106.662C106.711 76.5985 106.776 76.2784 106.855 75.8807C106.935 75.483 107.014 75.0379 107.094 74.5455C107.177 74.0568 107.245 73.5568 107.298 73.0455L107.366 72.4091H108.821ZM119.101 74.1818C118.374 74.1818 117.732 73.9981 117.175 73.6307C116.618 73.2595 116.182 72.7367 115.868 72.0625C115.554 71.3845 115.396 70.5833 115.396 69.6591C115.396 68.7424 115.554 67.947 115.868 67.2727C116.182 66.5985 116.62 66.0777 117.18 65.7102C117.741 65.3428 118.389 65.1591 119.124 65.1591C119.692 65.1591 120.141 65.2538 120.47 65.4432C120.804 65.6288 121.057 65.8409 121.232 66.0795C121.41 66.3144 121.548 66.5076 121.646 66.6591H121.76V62.3636H123.101V74H121.805V72.6591H121.646C121.548 72.8182 121.408 73.0189 121.226 73.2614C121.044 73.5 120.785 73.714 120.447 73.9034C120.11 74.089 119.661 74.1818 119.101 74.1818ZM119.283 72.9773C119.821 72.9773 120.275 72.8371 120.646 72.5568C121.018 72.2727 121.3 71.8807 121.493 71.3807C121.686 70.8769 121.783 70.2955 121.783 69.6364C121.783 68.9848 121.688 68.4148 121.499 67.9261C121.309 67.4337 121.029 67.0511 120.658 66.7784C120.286 66.5019 119.828 66.3636 119.283 66.3636C118.714 66.3636 118.241 66.5095 117.862 66.8011C117.487 67.089 117.205 67.4811 117.016 67.9773C116.83 68.4697 116.737 69.0227 116.737 69.6364C116.737 70.2576 116.832 70.822 117.021 71.3295C117.214 71.8333 117.499 72.2348 117.874 72.5341C118.252 72.8295 118.722 72.9773 119.283 72.9773ZM128.311 74.2045C127.758 74.2045 127.256 74.1004 126.805 73.892C126.355 73.6799 125.997 73.375 125.732 72.9773C125.466 72.5758 125.334 72.0909 125.334 71.5227C125.334 71.0227 125.432 70.6174 125.629 70.3068C125.826 69.9924 126.089 69.7462 126.419 69.5682C126.749 69.3902 127.112 69.2576 127.51 69.1705C127.911 69.0795 128.315 69.0076 128.72 68.9545C129.25 68.8864 129.68 68.8352 130.01 68.8011C130.343 68.7633 130.586 68.7008 130.737 68.6136C130.893 68.5265 130.97 68.375 130.97 68.1591V68.1136C130.97 67.553 130.817 67.1174 130.51 66.8068C130.207 66.4962 129.747 66.3409 129.129 66.3409C128.489 66.3409 127.987 66.4811 127.624 66.7614C127.26 67.0417 127.004 67.3409 126.857 67.6591L125.584 67.2045C125.811 66.6742 126.114 66.2614 126.493 65.9659C126.875 65.6667 127.292 65.4583 127.743 65.3409C128.197 65.2197 128.644 65.1591 129.084 65.1591C129.364 65.1591 129.686 65.1932 130.05 65.2614C130.417 65.3258 130.771 65.4602 131.112 65.6648C131.457 65.8693 131.743 66.178 131.97 66.5909C132.197 67.0038 132.311 67.5568 132.311 68.25V74H130.97V72.8182H130.902C130.811 73.0076 130.66 73.2102 130.447 73.4261C130.235 73.642 129.953 73.8258 129.601 73.9773C129.249 74.1288 128.819 74.2045 128.311 74.2045ZM128.516 73C129.046 73 129.493 72.8958 129.857 72.6875C130.224 72.4792 130.5 72.2102 130.686 71.8807C130.875 71.5511 130.97 71.2045 130.97 70.8409V69.6136C130.913 69.6818 130.788 69.7443 130.595 69.8011C130.406 69.8542 130.186 69.9015 129.936 69.9432C129.69 69.9811 129.449 70.0152 129.214 70.0455C128.983 70.072 128.796 70.0947 128.652 70.1136C128.304 70.1591 127.978 70.233 127.675 70.3352C127.375 70.4337 127.133 70.5833 126.947 70.7841C126.766 70.9811 126.675 71.25 126.675 71.5909C126.675 72.0568 126.847 72.4091 127.192 72.6477C127.54 72.8826 127.982 73 128.516 73ZM140.94 67.2273L139.736 67.5682C139.66 67.3674 139.548 67.1723 139.401 66.983C139.257 66.7898 139.06 66.6307 138.81 66.5057C138.56 66.3807 138.24 66.3182 137.849 66.3182C137.315 66.3182 136.87 66.4413 136.514 66.6875C136.162 66.9299 135.986 67.2386 135.986 67.6136C135.986 67.947 136.107 68.2102 136.349 68.4034C136.592 68.5966 136.971 68.7576 137.486 68.8864L138.781 69.2045C139.562 69.3939 140.143 69.6837 140.526 70.0739C140.908 70.4602 141.099 70.9583 141.099 71.5682C141.099 72.0682 140.955 72.5152 140.668 72.9091C140.384 73.303 139.986 73.6136 139.474 73.8409C138.963 74.0682 138.368 74.1818 137.69 74.1818C136.8 74.1818 136.063 73.9886 135.48 73.6023C134.897 73.2159 134.527 72.6515 134.372 71.9091L135.645 71.5909C135.766 72.0606 135.995 72.4129 136.332 72.6477C136.673 72.8826 137.118 73 137.668 73C138.293 73 138.789 72.8674 139.156 72.6023C139.527 72.3333 139.713 72.0114 139.713 71.6364C139.713 71.3333 139.607 71.0795 139.395 70.875C139.183 70.6667 138.857 70.5114 138.418 70.4091L136.963 70.0682C136.164 69.8788 135.577 69.5852 135.202 69.1875C134.83 68.786 134.645 68.2841 134.645 67.6818C134.645 67.1894 134.783 66.7538 135.06 66.375C135.34 65.9962 135.721 65.6989 136.202 65.483C136.687 65.267 137.236 65.1591 137.849 65.1591C138.713 65.1591 139.391 65.3485 139.884 65.7273C140.38 66.1061 140.732 66.6061 140.94 67.2273ZM149.3 67.2273L148.095 67.5682C148.019 67.3674 147.908 67.1723 147.76 66.983C147.616 66.7898 147.419 66.6307 147.169 66.5057C146.919 66.3807 146.599 66.3182 146.209 66.3182C145.675 66.3182 145.23 66.4413 144.874 66.6875C144.521 66.9299 144.345 67.2386 144.345 67.6136C144.345 67.947 144.466 68.2102 144.709 68.4034C144.951 68.5966 145.33 68.7576 145.845 68.8864L147.141 69.2045C147.921 69.3939 148.502 69.6837 148.885 70.0739C149.268 70.4602 149.459 70.9583 149.459 71.5682C149.459 72.0682 149.315 72.5152 149.027 72.9091C148.743 73.303 148.345 73.6136 147.834 73.8409C147.322 74.0682 146.728 74.1818 146.05 74.1818C145.16 74.1818 144.423 73.9886 143.839 73.6023C143.256 73.2159 142.887 72.6515 142.732 71.9091L144.004 71.5909C144.125 72.0606 144.355 72.4129 144.692 72.6477C145.033 72.8826 145.478 73 146.027 73C146.652 73 147.148 72.8674 147.516 72.6023C147.887 72.3333 148.072 72.0114 148.072 71.6364C148.072 71.3333 147.966 71.0795 147.754 70.875C147.542 70.6667 147.216 70.5114 146.777 70.4091L145.322 70.0682C144.523 69.8788 143.936 69.5852 143.561 69.1875C143.19 68.786 143.004 68.2841 143.004 67.6818C143.004 67.1894 143.143 66.7538 143.419 66.375C143.699 65.9962 144.08 65.6989 144.561 65.483C145.046 65.267 145.595 65.1591 146.209 65.1591C147.072 65.1591 147.75 65.3485 148.243 65.7273C148.739 66.1061 149.091 66.6061 149.3 67.2273ZM155.977 74V65.2727H157.318V74H155.977ZM156.659 63.8182C156.398 63.8182 156.172 63.7292 155.983 63.5511C155.797 63.3731 155.705 63.1591 155.705 62.9091C155.705 62.6591 155.797 62.4451 155.983 62.267C156.172 62.089 156.398 62 156.659 62C156.92 62 157.144 62.089 157.33 62.267C157.519 62.4451 157.614 62.6591 157.614 62.9091C157.614 63.1591 157.519 63.3731 157.33 63.5511C157.144 63.7292 156.92 63.8182 156.659 63.8182ZM163.32 74.1818C162.501 74.1818 161.797 73.9886 161.206 73.6023C160.615 73.2159 160.161 72.6837 159.842 72.0057C159.524 71.3277 159.365 70.553 159.365 69.6818C159.365 68.7955 159.528 68.0133 159.854 67.3352C160.183 66.6534 160.642 66.1212 161.229 65.7386C161.82 65.3523 162.509 65.1591 163.297 65.1591C163.911 65.1591 164.464 65.2727 164.956 65.5C165.448 65.7273 165.852 66.0455 166.166 66.4545C166.481 66.8636 166.676 67.3409 166.751 67.8864H165.411C165.308 67.4886 165.081 67.1364 164.729 66.8295C164.38 66.5189 163.911 66.3636 163.32 66.3636C162.797 66.3636 162.339 66.5 161.945 66.7727C161.554 67.0417 161.25 67.4223 161.03 67.9148C160.814 68.4034 160.706 68.9773 160.706 69.6364C160.706 70.3106 160.812 70.8977 161.024 71.3977C161.24 71.8977 161.543 72.286 161.933 72.5625C162.327 72.839 162.789 72.9773 163.32 72.9773C163.668 72.9773 163.984 72.9167 164.268 72.7955C164.553 72.6742 164.793 72.5 164.99 72.2727C165.187 72.0455 165.327 71.7727 165.411 71.4545H166.751C166.676 71.9697 166.488 72.4337 166.189 72.8466C165.893 73.2557 165.501 73.5814 165.013 73.8239C164.528 74.0625 163.964 74.1818 163.32 74.1818ZM170.053 68.75V74H168.712V62.3636H170.053V66.6364H170.166C170.371 66.1856 170.678 65.8277 171.087 65.5625C171.5 65.2936 172.049 65.1591 172.734 65.1591C173.329 65.1591 173.85 65.2784 174.297 65.517C174.744 65.7519 175.09 66.1136 175.337 66.6023C175.587 67.0871 175.712 67.7045 175.712 68.4545V74H174.371V68.5455C174.371 67.8523 174.191 67.3163 173.831 66.9375C173.475 66.5549 172.981 66.3636 172.348 66.3636C171.909 66.3636 171.515 66.4564 171.166 66.642C170.821 66.8277 170.549 67.0985 170.348 67.4545C170.151 67.8106 170.053 68.2424 170.053 68.75ZM179.142 74.0909C178.862 74.0909 178.621 73.9905 178.42 73.7898C178.22 73.589 178.119 73.3485 178.119 73.0682C178.119 72.7879 178.22 72.5473 178.42 72.3466C178.621 72.1458 178.862 72.0455 179.142 72.0455C179.422 72.0455 179.663 72.1458 179.864 72.3466C180.064 72.5473 180.165 72.7879 180.165 73.0682C180.165 73.2538 180.117 73.4242 180.023 73.5795C179.932 73.7348 179.809 73.8598 179.653 73.9545C179.502 74.0455 179.331 74.0909 179.142 74.0909ZM183.548 74.0909C183.268 74.0909 183.027 73.9905 182.827 73.7898C182.626 73.589 182.526 73.3485 182.526 73.0682C182.526 72.7879 182.626 72.5473 182.827 72.3466C183.027 72.1458 183.268 72.0455 183.548 72.0455C183.829 72.0455 184.069 72.1458 184.27 72.3466C184.471 72.5473 184.571 72.7879 184.571 73.0682C184.571 73.2538 184.524 73.4242 184.429 73.5795C184.338 73.7348 184.215 73.8598 184.06 73.9545C183.908 74.0455 183.738 74.0909 183.548 74.0909ZM187.955 74.0909C187.674 74.0909 187.434 73.9905 187.233 73.7898C187.032 73.589 186.932 73.3485 186.932 73.0682C186.932 72.7879 187.032 72.5473 187.233 72.3466C187.434 72.1458 187.674 72.0455 187.955 72.0455C188.235 72.0455 188.475 72.1458 188.676 72.3466C188.877 72.5473 188.977 72.7879 188.977 73.0682C188.977 73.2538 188.93 73.4242 188.835 73.5795C188.744 73.7348 188.621 73.8598 188.466 73.9545C188.314 74.0455 188.144 74.0909 187.955 74.0909Z" fill="black"/>
<path d="M22.6307 23L25.5284 5.54545H32.2102C33.4716 5.54545 34.4886 5.74432 35.2614 6.14204C36.0341 6.53409 36.571 7.07102 36.8722 7.75284C37.179 8.43466 37.2585 9.20739 37.1108 10.071C36.9915 10.7756 36.7528 11.3807 36.3949 11.8864C36.0426 12.3864 35.6108 12.7955 35.0994 13.1136C34.5881 13.4261 34.0398 13.6506 33.4545 13.7869L33.4205 13.9574C34.0341 13.9858 34.5966 14.1733 35.108 14.5199C35.6193 14.8665 36.0057 15.3551 36.267 15.9858C36.5284 16.6108 36.5881 17.3636 36.446 18.2443C36.2926 19.1477 35.9375 19.9602 35.3807 20.6818C34.8239 21.3977 34.0682 21.9631 33.1136 22.3778C32.1648 22.7926 31.0256 23 29.696 23H22.6307ZM26.2358 20.358H29.6364C30.7784 20.358 31.642 20.1392 32.2273 19.7017C32.8125 19.2585 33.1619 18.6903 33.2756 17.9972C33.3608 17.4801 33.3097 17.0142 33.1222 16.5994C32.9347 16.179 32.625 15.8494 32.1932 15.6108C31.7614 15.3665 31.2216 15.2443 30.5739 15.2443H27.0795L26.2358 20.358ZM27.4716 12.9688H30.5994C31.1449 12.9688 31.6506 12.8693 32.1165 12.6705C32.5881 12.4659 32.9801 12.179 33.2926 11.8097C33.6108 11.4347 33.8068 10.9915 33.8807 10.4801C34 9.80398 33.858 9.24716 33.4545 8.80966C33.0511 8.37216 32.3864 8.15341 31.4602 8.15341H28.2557L27.4716 12.9688ZM44.0291 23.2557C42.7166 23.2557 41.6314 22.983 40.7734 22.4375C39.9155 21.8864 39.3132 21.108 38.9666 20.1023C38.6257 19.0909 38.5689 17.9006 38.7962 16.5312C39.0178 15.1847 39.4695 14.0028 40.1513 12.9858C40.8331 11.9631 41.6854 11.1676 42.7081 10.5994C43.7365 10.0256 44.8729 9.73864 46.1172 9.73864C46.924 9.73864 47.6655 9.86932 48.3416 10.1307C49.0178 10.3864 49.5888 10.7841 50.0547 11.3239C50.5206 11.8636 50.8416 12.5511 51.0178 13.3864C51.1939 14.2159 51.1854 15.2045 50.9922 16.3523L50.8473 17.2983H40.1087L40.4411 15.2188H48.2138C48.3161 14.6278 48.282 14.1023 48.1115 13.642C47.9411 13.1761 47.657 12.8097 47.2592 12.5426C46.8615 12.2756 46.3643 12.142 45.7678 12.142C45.1598 12.142 44.5916 12.2983 44.0632 12.6108C43.5405 12.9176 43.1001 13.3153 42.7422 13.804C42.3842 14.2926 42.157 14.8068 42.0604 15.3466L41.7109 17.3409C41.5859 18.1591 41.6143 18.8267 41.7962 19.3438C41.978 19.8608 42.2962 20.2415 42.7507 20.4858C43.2053 20.7301 43.7791 20.8523 44.4723 20.8523C44.9268 20.8523 45.3473 20.7898 45.7337 20.6648C46.12 20.5398 46.4638 20.3523 46.7649 20.1023C47.0717 19.8466 47.3274 19.5341 47.532 19.1648L50.353 19.4886C50.0405 20.25 49.5831 20.9148 48.9808 21.483C48.3786 22.0455 47.657 22.483 46.8161 22.7955C45.9808 23.1023 45.0518 23.2557 44.0291 23.2557ZM52.5178 23L54.6996 9.90909H57.7848L55.603 23H52.5178ZM56.6939 8.03409C56.1996 8.03409 55.7905 7.86932 55.4666 7.53977C55.1428 7.21023 55.0007 6.81534 55.0405 6.35511C55.0803 5.89489 55.2876 5.5 55.6626 5.17045C56.0433 4.84091 56.478 4.67614 56.9666 4.67614C57.4609 4.67614 57.8672 4.84091 58.1854 5.17045C58.5092 5.5 58.6513 5.89489 58.6115 6.35511C58.5774 6.81534 58.37 7.21023 57.9893 7.53977C57.6143 7.86932 57.1825 8.03409 56.6939 8.03409ZM64.4517 23.2557C63.1449 23.2557 62.071 22.9688 61.2301 22.3949C60.3892 21.821 59.8011 21.0284 59.4659 20.017C59.1364 19 59.0824 17.8295 59.304 16.5057C59.5199 15.1761 59.9659 14.0028 60.642 12.9858C61.3239 11.9631 62.1818 11.1676 63.2159 10.5994C64.25 10.0256 65.4063 9.73864 66.6847 9.73864C67.7472 9.73864 68.6534 9.93466 69.4034 10.3267C70.1591 10.7131 70.7216 11.2614 71.0909 11.9716C71.4659 12.6761 71.6108 13.5 71.5256 14.4432H68.5682C68.5568 13.8125 68.3608 13.2869 67.9801 12.8665C67.5994 12.4403 67.0426 12.2273 66.3097 12.2273C65.6733 12.2273 65.0881 12.3977 64.554 12.7386C64.0199 13.0739 63.5682 13.5568 63.1989 14.1875C62.8295 14.8182 62.5739 15.5739 62.4318 16.4545C62.2841 17.3466 62.2869 18.1136 62.4403 18.7557C62.5994 19.392 62.8864 19.8835 63.3011 20.2301C63.7216 20.571 64.2528 20.7415 64.8949 20.7415C65.3494 20.7415 65.7727 20.6562 66.1648 20.4858C66.5568 20.3097 66.9006 20.0568 67.196 19.7273C67.4972 19.3977 67.733 18.9972 67.9034 18.5256H70.8523C70.6193 19.4517 70.2045 20.2727 69.608 20.9886C69.017 21.6989 68.2841 22.2557 67.4091 22.6591C66.5341 23.0568 65.5483 23.2557 64.4517 23.2557ZM76.9908 15.3295L75.7294 23H72.6357L75.5334 5.54545H78.5589L77.468 12.1335H77.63C78.0447 11.3892 78.6101 10.804 79.326 10.3778C80.0476 9.9517 80.9141 9.73864 81.9254 9.73864C82.8232 9.73864 83.5788 9.92898 84.1925 10.3097C84.8061 10.6903 85.2379 11.2472 85.4879 11.9801C85.7436 12.7131 85.7862 13.608 85.6158 14.6648L84.218 23H81.1243L82.4368 15.142C82.5788 14.2614 82.4624 13.5767 82.0874 13.0881C81.718 12.5937 81.1328 12.3466 80.3317 12.3466C79.7805 12.3466 79.272 12.4659 78.8061 12.7045C78.3402 12.9375 77.9482 13.2756 77.63 13.7188C77.3175 14.1619 77.1044 14.6989 76.9908 15.3295ZM96.0646 9.90909L95.6641 12.2955H88.147L88.5391 9.90909H96.0646ZM90.9084 6.77273H93.9936L91.9482 19.0625C91.8857 19.4773 91.897 19.7955 91.9822 20.017C92.0732 20.233 92.218 20.3807 92.4169 20.4602C92.6214 20.5398 92.8516 20.5795 93.1072 20.5795C93.2947 20.5795 93.4709 20.5653 93.6357 20.5369C93.8004 20.5028 93.9311 20.4773 94.0277 20.4602L94.1641 22.8722C93.9766 22.929 93.7237 22.9915 93.4055 23.0597C93.093 23.1278 92.718 23.1676 92.2805 23.179C91.4964 23.196 90.8146 23.0767 90.2351 22.821C89.6612 22.5597 89.2408 22.1591 88.9737 21.6193C88.7124 21.0739 88.6527 20.392 88.7947 19.5739L90.9084 6.77273ZM102.084 23.2557C100.771 23.2557 99.6861 22.983 98.8281 22.4375C97.9702 21.8864 97.3679 21.108 97.0213 20.1023C96.6804 19.0909 96.6236 17.9006 96.8509 16.5312C97.0724 15.1847 97.5241 14.0028 98.206 12.9858C98.8878 11.9631 99.7401 11.1676 100.763 10.5994C101.791 10.0256 102.928 9.73864 104.172 9.73864C104.979 9.73864 105.72 9.86932 106.396 10.1307C107.072 10.3864 107.643 10.7841 108.109 11.3239C108.575 11.8636 108.896 12.5511 109.072 13.3864C109.249 14.2159 109.24 15.2045 109.047 16.3523L108.902 17.2983H98.1634L98.4957 15.2188H106.268C106.371 14.6278 106.337 14.1023 106.166 13.642C105.996 13.1761 105.712 12.8097 105.314 12.5426C104.916 12.2756 104.419 12.142 103.822 12.142C103.214 12.142 102.646 12.2983 102.118 12.6108C101.595 12.9176 101.155 13.3153 100.797 13.804C100.439 14.2926 100.212 14.8068 100.115 15.3466L99.7656 17.3409C99.6406 18.1591 99.669 18.8267 99.8509 19.3438C100.033 19.8608 100.351 20.2415 100.805 20.4858C101.26 20.7301 101.834 20.8523 102.527 20.8523C102.982 20.8523 103.402 20.7898 103.788 20.6648C104.175 20.5398 104.518 20.3523 104.82 20.1023C105.126 19.8466 105.382 19.5341 105.587 19.1648L108.408 19.4886C108.095 20.25 107.638 20.9148 107.036 21.483C106.433 22.0455 105.712 22.483 104.871 22.7955C104.036 23.1023 103.107 23.2557 102.084 23.2557ZM114.936 15.3295L113.675 23H110.581L112.763 9.90909H115.72L115.345 12.1335H115.507C115.916 11.4006 116.49 10.8182 117.229 10.3864C117.967 9.95455 118.828 9.73864 119.811 9.73864C120.703 9.73864 121.453 9.93182 122.061 10.3182C122.669 10.6989 123.101 11.2585 123.357 11.9972C123.612 12.7301 123.652 13.6193 123.476 14.6648L122.078 23H118.993L120.297 15.142C120.445 14.2727 120.334 13.5909 119.964 13.0966C119.601 12.5966 119.016 12.3466 118.209 12.3466C117.669 12.3466 117.172 12.4659 116.717 12.7045C116.263 12.9375 115.879 13.2756 115.567 13.7188C115.26 14.1619 115.05 14.6989 114.936 15.3295ZM127.277 23.1875C126.754 23.1875 126.322 23.0057 125.982 22.642C125.641 22.2784 125.482 21.8352 125.504 21.3125C125.527 20.8011 125.734 20.3665 126.126 20.0085C126.518 19.6506 126.97 19.4716 127.482 19.4716C127.987 19.4716 128.416 19.6534 128.768 20.017C129.126 20.3807 129.288 20.8125 129.254 21.3125C129.232 21.6648 129.124 21.983 128.93 22.267C128.743 22.5511 128.504 22.7756 128.214 22.9403C127.925 23.1051 127.612 23.1875 127.277 23.1875ZM134.238 23.1875C133.715 23.1875 133.283 23.0057 132.942 22.642C132.602 22.2784 132.442 21.8352 132.465 21.3125C132.488 20.8011 132.695 20.3665 133.087 20.0085C133.479 19.6506 133.931 19.4716 134.442 19.4716C134.948 19.4716 135.377 19.6534 135.729 20.017C136.087 20.3807 136.249 20.8125 136.215 21.3125C136.192 21.6648 136.085 21.983 135.891 22.267C135.704 22.5511 135.465 22.7756 135.175 22.9403C134.886 23.1051 134.573 23.1875 134.238 23.1875ZM141.199 23.1875C140.676 23.1875 140.244 23.0057 139.903 22.642C139.562 22.2784 139.403 21.8352 139.426 21.3125C139.449 20.8011 139.656 20.3665 140.048 20.0085C140.44 19.6506 140.892 19.4716 141.403 19.4716C141.909 19.4716 142.338 19.6534 142.69 20.017C143.048 20.3807 143.21 20.8125 143.176 21.3125C143.153 21.6648 143.045 21.983 142.852 22.267C142.665 22.5511 142.426 22.7756 142.136 22.9403C141.847 23.1051 141.534 23.1875 141.199 23.1875Z" fill="black"/>
<path d="M266.097 129H264.62L268.893 117.364H270.347L274.62 129H273.143L269.665 119.205H269.575L266.097 129ZM266.643 124.455H272.597V125.705H266.643V124.455ZM277.592 123.75V129H276.251V120.273H277.546V121.636H277.66C277.864 121.193 278.175 120.837 278.592 120.568C279.008 120.295 279.546 120.159 280.205 120.159C280.796 120.159 281.313 120.28 281.756 120.523C282.2 120.761 282.544 121.125 282.79 121.614C283.037 122.098 283.16 122.712 283.16 123.455V129H281.819V123.545C281.819 122.86 281.641 122.326 281.285 121.943C280.929 121.557 280.44 121.364 279.819 121.364C279.391 121.364 279.008 121.456 278.671 121.642C278.338 121.828 278.075 122.098 277.881 122.455C277.688 122.811 277.592 123.242 277.592 123.75ZM289.156 129.182C288.368 129.182 287.676 128.994 287.082 128.619C286.491 128.244 286.029 127.72 285.695 127.045C285.366 126.371 285.201 125.583 285.201 124.682C285.201 123.773 285.366 122.979 285.695 122.301C286.029 121.623 286.491 121.097 287.082 120.722C287.676 120.347 288.368 120.159 289.156 120.159C289.943 120.159 290.633 120.347 291.224 120.722C291.818 121.097 292.281 121.623 292.61 122.301C292.943 122.979 293.11 123.773 293.11 124.682C293.11 125.583 292.943 126.371 292.61 127.045C292.281 127.72 291.818 128.244 291.224 128.619C290.633 128.994 289.943 129.182 289.156 129.182ZM289.156 127.977C289.754 127.977 290.246 127.824 290.633 127.517C291.019 127.21 291.305 126.807 291.491 126.307C291.676 125.807 291.769 125.265 291.769 124.682C291.769 124.098 291.676 123.555 291.491 123.051C291.305 122.547 291.019 122.14 290.633 121.83C290.246 121.519 289.754 121.364 289.156 121.364C288.557 121.364 288.065 121.519 287.678 121.83C287.292 122.14 287.006 122.547 286.82 123.051C286.635 123.555 286.542 124.098 286.542 124.682C286.542 125.265 286.635 125.807 286.82 126.307C287.006 126.807 287.292 127.21 287.678 127.517C288.065 127.824 288.557 127.977 289.156 127.977ZM296.498 123.75V129H295.157V120.273H296.452V121.636H296.566C296.771 121.193 297.081 120.837 297.498 120.568C297.915 120.295 298.452 120.159 299.112 120.159C299.702 120.159 300.219 120.28 300.663 120.523C301.106 120.761 301.451 121.125 301.697 121.614C301.943 122.098 302.066 122.712 302.066 123.455V129H300.725V123.545C300.725 122.86 300.547 122.326 300.191 121.943C299.835 121.557 299.346 121.364 298.725 121.364C298.297 121.364 297.915 121.456 297.577 121.642C297.244 121.828 296.981 122.098 296.788 122.455C296.594 122.811 296.498 123.242 296.498 123.75ZM305.067 132.273C304.84 132.273 304.638 132.254 304.46 132.216C304.281 132.182 304.158 132.148 304.09 132.114L304.431 130.932C304.757 131.015 305.045 131.045 305.295 131.023C305.545 131 305.766 130.888 305.96 130.688C306.156 130.491 306.336 130.17 306.499 129.727L306.749 129.045L303.522 120.273H304.977L307.386 127.227H307.477L309.886 120.273H311.34L307.636 130.273C307.469 130.723 307.263 131.097 307.016 131.392C306.77 131.691 306.484 131.913 306.158 132.057C305.836 132.201 305.473 132.273 305.067 132.273ZM313.11 129V120.273H314.406V121.636H314.519C314.701 121.17 314.995 120.809 315.4 120.551C315.805 120.29 316.292 120.159 316.86 120.159C317.436 120.159 317.915 120.29 318.298 120.551C318.684 120.809 318.985 121.17 319.201 121.636H319.292C319.515 121.186 319.851 120.828 320.298 120.562C320.745 120.294 321.281 120.159 321.906 120.159C322.686 120.159 323.324 120.403 323.82 120.892C324.317 121.377 324.565 122.133 324.565 123.159V129H323.224V123.159C323.224 122.515 323.048 122.055 322.695 121.778C322.343 121.502 321.928 121.364 321.451 121.364C320.837 121.364 320.362 121.549 320.025 121.92C319.688 122.288 319.519 122.754 319.519 123.318V129H318.156V123.023C318.156 122.527 317.995 122.127 317.673 121.824C317.351 121.517 316.936 121.364 316.428 121.364C316.08 121.364 315.754 121.456 315.451 121.642C315.152 121.828 314.909 122.085 314.724 122.415C314.542 122.741 314.451 123.117 314.451 123.545V129H313.11Z" fill="#979797"/>
</svg>
