<svg width="291" height="148" viewBox="0 0 291 148" fill="none" xmlns="http://www.w3.org/2000/svg">
<rect x="1" y="39" width="289" height="108" rx="22" fill="white" stroke="black" stroke-linejoin="round"/>
<path d="M51.3352 65V63.9773C51.3352 63.6667 51.3902 63.3371 51.5 62.9886C51.6136 62.6364 51.7765 62.2973 51.9886 61.9716C52.2045 61.642 52.464 61.3561 52.767 61.1136L53.4943 61.7045C53.2557 62.0455 53.0473 62.4015 52.8693 62.7727C52.6951 63.1402 52.608 63.5341 52.608 63.9545V65H51.3352ZM54.2443 65V63.9773C54.2443 63.6667 54.2992 63.3371 54.4091 62.9886C54.5227 62.6364 54.6856 62.2973 54.8977 61.9716C55.1136 61.642 55.3731 61.3561 55.6761 61.1136L56.4034 61.7045C56.1648 62.0455 55.9564 62.4015 55.7784 62.7727C55.6042 63.1402 55.517 63.5341 55.517 63.9545V65H54.2443ZM58.0653 73V61.3636H59.4744V71.75H64.8835V73H58.0653ZM70.429 73.1818C69.6411 73.1818 68.9498 72.9943 68.3551 72.6193C67.7642 72.2443 67.3021 71.7197 66.9688 71.0455C66.6392 70.3712 66.4744 69.5833 66.4744 68.6818C66.4744 67.7727 66.6392 66.9792 66.9688 66.3011C67.3021 65.6231 67.7642 65.0966 68.3551 64.7216C68.9498 64.3466 69.6411 64.1591 70.429 64.1591C71.2169 64.1591 71.9063 64.3466 72.4972 64.7216C73.0919 65.0966 73.554 65.6231 73.8835 66.3011C74.2169 66.9792 74.3835 67.7727 74.3835 68.6818C74.3835 69.5833 74.2169 70.3712 73.8835 71.0455C73.554 71.7197 73.0919 72.2443 72.4972 72.6193C71.9063 72.9943 71.2169 73.1818 70.429 73.1818ZM70.429 71.9773C71.0275 71.9773 71.5199 71.8239 71.9062 71.517C72.2926 71.2102 72.5786 70.8068 72.7642 70.3068C72.9498 69.8068 73.0426 69.2652 73.0426 68.6818C73.0426 68.0985 72.9498 67.5549 72.7642 67.0511C72.5786 66.5473 72.2926 66.1402 71.9062 65.8295C71.5199 65.5189 71.0275 65.3636 70.429 65.3636C69.8305 65.3636 69.3381 65.5189 68.9517 65.8295C68.5653 66.1402 68.2794 66.5473 68.0938 67.0511C67.9081 67.5549 67.8153 68.0985 67.8153 68.6818C67.8153 69.2652 67.9081 69.8068 68.0938 70.3068C68.2794 70.8068 68.5653 71.2102 68.9517 71.517C69.3381 71.8239 69.8305 71.9773 70.429 71.9773ZM76.4304 73V64.2727H77.7259V65.5909H77.8168C77.9759 65.1591 78.2637 64.8087 78.6804 64.5398C79.0971 64.2708 79.5668 64.1364 80.0895 64.1364C80.188 64.1364 80.3111 64.1383 80.4588 64.142C80.6065 64.1458 80.7183 64.1515 80.794 64.1591V65.5227C80.7486 65.5114 80.6444 65.4943 80.4815 65.4716C80.3224 65.4451 80.1539 65.4318 79.9759 65.4318C79.5516 65.4318 79.1728 65.5208 78.8395 65.6989C78.5099 65.8731 78.2486 66.1155 78.0554 66.4261C77.866 66.733 77.7713 67.0833 77.7713 67.4773V73H76.4304ZM85.777 73.1818C84.9361 73.1818 84.2107 72.9962 83.6009 72.625C82.9948 72.25 82.527 71.7273 82.1974 71.0568C81.8717 70.3826 81.7088 69.5985 81.7088 68.7045C81.7088 67.8106 81.8717 67.0227 82.1974 66.3409C82.527 65.6553 82.9853 65.1212 83.5724 64.7386C84.1634 64.3523 84.8527 64.1591 85.6406 64.1591C86.0952 64.1591 86.544 64.2348 86.9872 64.3864C87.4304 64.5379 87.8338 64.7841 88.1974 65.125C88.5611 65.4621 88.8509 65.9091 89.0668 66.4659C89.2827 67.0227 89.3906 67.7083 89.3906 68.5227V69.0909H82.6634V67.9318H88.027C88.027 67.4394 87.9285 67 87.7315 66.6136C87.5384 66.2273 87.2618 65.9223 86.902 65.6989C86.5459 65.4754 86.1255 65.3636 85.6406 65.3636C85.1065 65.3636 84.6444 65.4962 84.2543 65.7614C83.8679 66.0227 83.5705 66.3636 83.3622 66.7841C83.1539 67.2045 83.0497 67.6553 83.0497 68.1364V68.9091C83.0497 69.5682 83.1634 70.1269 83.3906 70.5852C83.6217 71.0398 83.9418 71.3864 84.3509 71.625C84.7599 71.8598 85.2353 71.9773 85.777 71.9773C86.1293 71.9773 86.4474 71.928 86.7315 71.8295C87.0194 71.7273 87.2675 71.5758 87.4759 71.375C87.6842 71.1705 87.8452 70.9167 87.9588 70.6136L89.2543 70.9773C89.1179 71.4167 88.8887 71.803 88.5668 72.1364C88.2448 72.4659 87.8471 72.7235 87.3736 72.9091C86.9001 73.0909 86.3679 73.1818 85.777 73.1818ZM91.4304 73V64.2727H92.7259V65.6364H92.8395C93.0213 65.1705 93.3149 64.8087 93.7202 64.5511C94.1255 64.2898 94.6122 64.1591 95.1804 64.1591C95.7562 64.1591 96.2353 64.2898 96.6179 64.5511C97.0043 64.8087 97.3054 65.1705 97.5213 65.6364H97.6122C97.8357 65.1856 98.1709 64.8277 98.6179 64.5625C99.0649 64.2936 99.6009 64.1591 100.226 64.1591C101.006 64.1591 101.644 64.4034 102.141 64.892C102.637 65.3769 102.885 66.1326 102.885 67.1591V73H101.544V67.1591C101.544 66.5152 101.368 66.0549 101.016 65.7784C100.663 65.5019 100.249 65.3636 99.7713 65.3636C99.1577 65.3636 98.6823 65.5492 98.3452 65.9205C98.008 66.2879 97.8395 66.7538 97.8395 67.3182V73H96.4759V67.0227C96.4759 66.5265 96.3149 66.1269 95.9929 65.8239C95.6709 65.517 95.2562 65.3636 94.7486 65.3636C94.4001 65.3636 94.0743 65.4564 93.7713 65.642C93.4721 65.8277 93.2296 66.0852 93.044 66.4148C92.8622 66.7405 92.7713 67.1174 92.7713 67.5455V73H91.4304ZM111.428 61.3636V73H110.018V61.3636H111.428ZM114.071 76.2727V64.2727H115.366V65.6591H115.526C115.624 65.5076 115.76 65.3144 115.935 65.0795C116.113 64.8409 116.366 64.6288 116.696 64.4432C117.029 64.2538 117.48 64.1591 118.048 64.1591C118.783 64.1591 119.431 64.3428 119.991 64.7102C120.552 65.0777 120.99 65.5985 121.304 66.2727C121.618 66.947 121.776 67.7424 121.776 68.6591C121.776 69.5833 121.618 70.3845 121.304 71.0625C120.99 71.7367 120.554 72.2595 119.997 72.6307C119.44 72.9981 118.798 73.1818 118.071 73.1818C117.51 73.1818 117.062 73.089 116.724 72.9034C116.387 72.714 116.128 72.5 115.946 72.2614C115.764 72.0189 115.624 71.8182 115.526 71.6591H115.412V76.2727H114.071ZM115.389 68.6364C115.389 69.2955 115.486 69.8769 115.679 70.3807C115.872 70.8807 116.154 71.2727 116.526 71.5568C116.897 71.8371 117.351 71.9773 117.889 71.9773C118.45 71.9773 118.918 71.8295 119.293 71.5341C119.671 71.2348 119.955 70.8333 120.145 70.3295C120.338 69.822 120.435 69.2576 120.435 68.6364C120.435 68.0227 120.34 67.4697 120.151 66.9773C119.965 66.4811 119.683 66.089 119.304 65.8011C118.929 65.5095 118.457 65.3636 117.889 65.3636C117.344 65.3636 116.885 65.5019 116.514 65.7784C116.143 66.0511 115.863 66.4337 115.673 66.9261C115.484 67.4148 115.389 67.9848 115.389 68.6364ZM130.003 66.2273L128.798 66.5682C128.723 66.3674 128.611 66.1723 128.463 65.983C128.319 65.7898 128.122 65.6307 127.872 65.5057C127.622 65.3807 127.302 65.3182 126.912 65.3182C126.378 65.3182 125.933 65.4413 125.577 65.6875C125.224 65.9299 125.048 66.2386 125.048 66.6136C125.048 66.947 125.17 67.2102 125.412 67.4034C125.654 67.5966 126.033 67.7576 126.548 67.8864L127.844 68.2045C128.624 68.3939 129.205 68.6837 129.588 69.0739C129.971 69.4602 130.162 69.9583 130.162 70.5682C130.162 71.0682 130.018 71.5152 129.73 71.9091C129.446 72.303 129.048 72.6136 128.537 72.8409C128.026 73.0682 127.431 73.1818 126.753 73.1818C125.863 73.1818 125.126 72.9886 124.543 72.6023C123.959 72.2159 123.59 71.6515 123.435 70.9091L124.707 70.5909C124.829 71.0606 125.058 71.4129 125.395 71.6477C125.736 71.8826 126.181 72 126.73 72C127.355 72 127.851 71.8674 128.219 71.6023C128.59 71.3333 128.776 71.0114 128.776 70.6364C128.776 70.3333 128.67 70.0795 128.457 69.875C128.245 69.6667 127.92 69.5114 127.48 69.4091L126.026 69.0682C125.226 68.8788 124.639 68.5852 124.264 68.1875C123.893 67.786 123.707 67.2841 123.707 66.6818C123.707 66.1894 123.846 65.7538 124.122 65.375C124.402 64.9962 124.783 64.6989 125.264 64.483C125.749 64.267 126.298 64.1591 126.912 64.1591C127.776 64.1591 128.454 64.3485 128.946 64.7273C129.442 65.1061 129.795 65.6061 130.003 66.2273ZM137.68 69.4318V64.2727H139.021V73H137.68V71.5227H137.589C137.385 71.9659 137.067 72.3428 136.635 72.6534C136.203 72.9602 135.658 73.1136 134.999 73.1136C134.453 73.1136 133.968 72.9943 133.544 72.7557C133.12 72.5133 132.786 72.1496 132.544 71.6648C132.302 71.1761 132.18 70.5606 132.18 69.8182V64.2727H133.521V69.7273C133.521 70.3636 133.699 70.8712 134.055 71.25C134.415 71.6288 134.874 71.8182 135.43 71.8182C135.764 71.8182 136.103 71.733 136.447 71.5625C136.796 71.392 137.088 71.1307 137.322 70.7784C137.561 70.4261 137.68 69.9773 137.68 69.4318ZM141.477 73V64.2727H142.773V65.6364H142.886C143.068 65.1705 143.362 64.8087 143.767 64.5511C144.172 64.2898 144.659 64.1591 145.227 64.1591C145.803 64.1591 146.282 64.2898 146.665 64.5511C147.051 64.8087 147.352 65.1705 147.568 65.6364H147.659C147.883 65.1856 148.218 64.8277 148.665 64.5625C149.112 64.2936 149.648 64.1591 150.273 64.1591C151.053 64.1591 151.691 64.4034 152.188 64.892C152.684 65.3769 152.932 66.1326 152.932 67.1591V73H151.591V67.1591C151.591 66.5152 151.415 66.0549 151.062 65.7784C150.71 65.5019 150.295 65.3636 149.818 65.3636C149.205 65.3636 148.729 65.5492 148.392 65.9205C148.055 66.2879 147.886 66.7538 147.886 67.3182V73H146.523V67.0227C146.523 66.5265 146.362 66.1269 146.04 65.8239C145.718 65.517 145.303 65.3636 144.795 65.3636C144.447 65.3636 144.121 65.4564 143.818 65.642C143.519 65.8277 143.277 66.0852 143.091 66.4148C142.909 66.7405 142.818 67.1174 142.818 67.5455V73H141.477ZM163.179 73.1818C162.452 73.1818 161.81 72.9981 161.253 72.6307C160.696 72.2595 160.26 71.7367 159.946 71.0625C159.632 70.3845 159.474 69.5833 159.474 68.6591C159.474 67.7424 159.632 66.947 159.946 66.2727C160.26 65.5985 160.698 65.0777 161.259 64.7102C161.819 64.3428 162.467 64.1591 163.202 64.1591C163.77 64.1591 164.219 64.2538 164.548 64.4432C164.882 64.6288 165.135 64.8409 165.31 65.0795C165.488 65.3144 165.626 65.5076 165.724 65.6591H165.838V61.3636H167.179V73H165.884V71.6591H165.724C165.626 71.8182 165.486 72.0189 165.304 72.2614C165.122 72.5 164.863 72.714 164.526 72.9034C164.188 73.089 163.74 73.1818 163.179 73.1818ZM163.361 71.9773C163.899 71.9773 164.353 71.8371 164.724 71.5568C165.096 71.2727 165.378 70.8807 165.571 70.3807C165.764 69.8769 165.861 69.2955 165.861 68.6364C165.861 67.9848 165.766 67.4148 165.577 66.9261C165.387 66.4337 165.107 66.0511 164.736 65.7784C164.365 65.5019 163.906 65.3636 163.361 65.3636C162.793 65.3636 162.319 65.5095 161.94 65.8011C161.565 66.089 161.283 66.4811 161.094 66.9773C160.908 67.4697 160.815 68.0227 160.815 68.6364C160.815 69.2576 160.91 69.822 161.099 70.3295C161.293 70.8333 161.577 71.2348 161.952 71.5341C162.33 71.8295 162.8 71.9773 163.361 71.9773ZM173.366 73.1818C172.579 73.1818 171.887 72.9943 171.293 72.6193C170.702 72.2443 170.24 71.7197 169.906 71.0455C169.577 70.3712 169.412 69.5833 169.412 68.6818C169.412 67.7727 169.577 66.9792 169.906 66.3011C170.24 65.6231 170.702 65.0966 171.293 64.7216C171.887 64.3466 172.579 64.1591 173.366 64.1591C174.154 64.1591 174.844 64.3466 175.435 64.7216C176.029 65.0966 176.491 65.6231 176.821 66.3011C177.154 66.9792 177.321 67.7727 177.321 68.6818C177.321 69.5833 177.154 70.3712 176.821 71.0455C176.491 71.7197 176.029 72.2443 175.435 72.6193C174.844 72.9943 174.154 73.1818 173.366 73.1818ZM173.366 71.9773C173.965 71.9773 174.457 71.8239 174.844 71.517C175.23 71.2102 175.516 70.8068 175.702 70.3068C175.887 69.8068 175.98 69.2652 175.98 68.6818C175.98 68.0985 175.887 67.5549 175.702 67.0511C175.516 66.5473 175.23 66.1402 174.844 65.8295C174.457 65.5189 173.965 65.3636 173.366 65.3636C172.768 65.3636 172.276 65.5189 171.889 65.8295C171.503 66.1402 171.217 66.5473 171.031 67.0511C170.846 67.5549 170.753 68.0985 170.753 68.6818C170.753 69.2652 170.846 69.8068 171.031 70.3068C171.217 70.8068 171.503 71.2102 171.889 71.517C172.276 71.8239 172.768 71.9773 173.366 71.9773ZM180.709 61.3636V73H179.368V61.3636H180.709ZM186.71 73.1818C185.922 73.1818 185.231 72.9943 184.636 72.6193C184.045 72.2443 183.583 71.7197 183.25 71.0455C182.92 70.3712 182.756 69.5833 182.756 68.6818C182.756 67.7727 182.92 66.9792 183.25 66.3011C183.583 65.6231 184.045 65.0966 184.636 64.7216C185.231 64.3466 185.922 64.1591 186.71 64.1591C187.498 64.1591 188.188 64.3466 188.778 64.7216C189.373 65.0966 189.835 65.6231 190.165 66.3011C190.498 66.9792 190.665 67.7727 190.665 68.6818C190.665 69.5833 190.498 70.3712 190.165 71.0455C189.835 71.7197 189.373 72.2443 188.778 72.6193C188.188 72.9943 187.498 73.1818 186.71 73.1818ZM186.71 71.9773C187.309 71.9773 187.801 71.8239 188.188 71.517C188.574 71.2102 188.86 70.8068 189.045 70.3068C189.231 69.8068 189.324 69.2652 189.324 68.6818C189.324 68.0985 189.231 67.5549 189.045 67.0511C188.86 66.5473 188.574 66.1402 188.188 65.8295C187.801 65.5189 187.309 65.3636 186.71 65.3636C186.112 65.3636 185.619 65.5189 185.233 65.8295C184.847 66.1402 184.561 66.5473 184.375 67.0511C184.189 67.5549 184.097 68.0985 184.097 68.6818C184.097 69.2652 184.189 69.8068 184.375 70.3068C184.561 70.8068 184.847 71.2102 185.233 71.517C185.619 71.8239 186.112 71.9773 186.71 71.9773ZM192.712 73V64.2727H194.007V65.5909H194.098C194.257 65.1591 194.545 64.8087 194.962 64.5398C195.378 64.2708 195.848 64.1364 196.371 64.1364C196.469 64.1364 196.592 64.1383 196.74 64.142C196.888 64.1458 197 64.1515 197.075 64.1591V65.5227C197.03 65.5114 196.926 65.4943 196.763 65.4716C196.604 65.4451 196.435 65.4318 196.257 65.4318C195.833 65.4318 195.454 65.5208 195.121 65.6989C194.791 65.8731 194.53 66.1155 194.337 66.4261C194.147 66.733 194.053 67.0833 194.053 67.4773V73H192.712ZM209.347 66.2273L208.142 66.5682C208.066 66.3674 207.955 66.1723 207.807 65.983C207.663 65.7898 207.466 65.6307 207.216 65.5057C206.966 65.3807 206.646 65.3182 206.256 65.3182C205.722 65.3182 205.277 65.4413 204.92 65.6875C204.568 65.9299 204.392 66.2386 204.392 66.6136C204.392 66.947 204.513 67.2102 204.756 67.4034C204.998 67.5966 205.377 67.7576 205.892 67.8864L207.188 68.2045C207.968 68.3939 208.549 68.6837 208.932 69.0739C209.314 69.4602 209.506 69.9583 209.506 70.5682C209.506 71.0682 209.362 71.5152 209.074 71.9091C208.79 72.303 208.392 72.6136 207.881 72.8409C207.369 73.0682 206.775 73.1818 206.097 73.1818C205.206 73.1818 204.47 72.9886 203.886 72.6023C203.303 72.2159 202.934 71.6515 202.778 70.9091L204.051 70.5909C204.172 71.0606 204.402 71.4129 204.739 71.6477C205.08 71.8826 205.525 72 206.074 72C206.699 72 207.195 71.8674 207.562 71.6023C207.934 71.3333 208.119 71.0114 208.119 70.6364C208.119 70.3333 208.013 70.0795 207.801 69.875C207.589 69.6667 207.263 69.5114 206.824 69.4091L205.369 69.0682C204.57 68.8788 203.983 68.5852 203.608 68.1875C203.237 67.786 203.051 67.2841 203.051 66.6818C203.051 66.1894 203.189 65.7538 203.466 65.375C203.746 64.9962 204.127 64.6989 204.608 64.483C205.093 64.267 205.642 64.1591 206.256 64.1591C207.119 64.1591 207.797 64.3485 208.29 64.7273C208.786 65.1061 209.138 65.6061 209.347 66.2273ZM211.524 73V64.2727H212.865V73H211.524ZM212.206 62.8182C211.945 62.8182 211.719 62.7292 211.53 62.5511C211.344 62.3731 211.251 62.1591 211.251 61.9091C211.251 61.6591 211.344 61.4451 211.53 61.267C211.719 61.089 211.945 61 212.206 61C212.467 61 212.691 61.089 212.876 61.267C213.066 61.4451 213.161 61.6591 213.161 61.9091C213.161 62.1591 213.066 62.3731 212.876 62.5511C212.691 62.7292 212.467 62.8182 212.206 62.8182ZM219.116 64.2727V65.4091H214.594V64.2727H219.116ZM215.912 62.1818H217.253V70.5C217.253 70.8788 217.308 71.1629 217.418 71.3523C217.531 71.5379 217.675 71.6629 217.849 71.7273C218.027 71.7879 218.215 71.8182 218.412 71.8182C218.56 71.8182 218.681 71.8106 218.776 71.7955C218.87 71.7765 218.946 71.7614 219.003 71.75L219.276 72.9545C219.185 72.9886 219.058 73.0227 218.895 73.0568C218.732 73.0947 218.526 73.1136 218.276 73.1136C217.897 73.1136 217.526 73.0322 217.162 72.8693C216.802 72.7064 216.503 72.4583 216.264 72.125C216.029 71.7917 215.912 71.3712 215.912 70.8636V62.1818ZM228.202 73.2045C227.649 73.2045 227.147 73.1004 226.696 72.892C226.245 72.6799 225.887 72.375 225.622 71.9773C225.357 71.5758 225.224 71.0909 225.224 70.5227C225.224 70.0227 225.323 69.6174 225.52 69.3068C225.717 68.9924 225.98 68.7462 226.31 68.5682C226.639 68.3902 227.003 68.2576 227.401 68.1705C227.802 68.0795 228.205 68.0076 228.611 67.9545C229.141 67.8864 229.571 67.8352 229.901 67.8011C230.234 67.7633 230.476 67.7008 230.628 67.6136C230.783 67.5265 230.861 67.375 230.861 67.1591V67.1136C230.861 66.553 230.707 66.1174 230.401 65.8068C230.098 65.4962 229.637 65.3409 229.02 65.3409C228.38 65.3409 227.878 65.4811 227.514 65.7614C227.151 66.0417 226.895 66.3409 226.747 66.6591L225.474 66.2045C225.702 65.6742 226.005 65.2614 226.384 64.9659C226.766 64.6667 227.183 64.4583 227.634 64.3409C228.088 64.2197 228.535 64.1591 228.974 64.1591C229.255 64.1591 229.577 64.1932 229.94 64.2614C230.308 64.3258 230.662 64.4602 231.003 64.6648C231.348 64.8693 231.634 65.178 231.861 65.5909C232.088 66.0038 232.202 66.5568 232.202 67.25V73H230.861V71.8182H230.793C230.702 72.0076 230.55 72.2102 230.338 72.4261C230.126 72.642 229.844 72.8258 229.491 72.9773C229.139 73.1288 228.709 73.2045 228.202 73.2045ZM228.406 72C228.937 72 229.384 71.8958 229.747 71.6875C230.115 71.4792 230.391 71.2102 230.577 70.8807C230.766 70.5511 230.861 70.2045 230.861 69.8409V68.6136C230.804 68.6818 230.679 68.7443 230.486 68.8011C230.296 68.8542 230.077 68.9015 229.827 68.9432C229.58 68.9811 229.34 69.0152 229.105 69.0455C228.874 69.072 228.687 69.0947 228.543 69.1136C228.194 69.1591 227.868 69.233 227.565 69.3352C227.266 69.4337 227.024 69.5833 226.838 69.7841C226.656 69.9811 226.565 70.25 226.565 70.5909C226.565 71.0568 226.738 71.4091 227.082 71.6477C227.431 71.8826 227.872 72 228.406 72ZM234.649 73V64.2727H235.945V65.6364H236.058C236.24 65.1705 236.534 64.8087 236.939 64.5511C237.344 64.2898 237.831 64.1591 238.399 64.1591C238.975 64.1591 239.454 64.2898 239.837 64.5511C240.223 64.8087 240.524 65.1705 240.74 65.6364H240.831C241.054 65.1856 241.39 64.8277 241.837 64.5625C242.284 64.2936 242.82 64.1591 243.445 64.1591C244.225 64.1591 244.863 64.4034 245.359 64.892C245.856 65.3769 246.104 66.1326 246.104 67.1591V73H244.763V67.1591C244.763 66.5152 244.587 66.0549 244.234 65.7784C243.882 65.5019 243.467 65.3636 242.99 65.3636C242.376 65.3636 241.901 65.5492 241.564 65.9205C241.227 66.2879 241.058 66.7538 241.058 67.3182V73H239.695V67.0227C239.695 66.5265 239.534 66.1269 239.212 65.8239C238.89 65.517 238.475 65.3636 237.967 65.3636C237.619 65.3636 237.293 65.4564 236.99 65.642C236.691 65.8277 236.448 66.0852 236.263 66.4148C236.081 66.7405 235.99 67.1174 235.99 67.5455V73H234.649ZM252.214 73.1818C251.374 73.1818 250.648 72.9962 250.038 72.625C249.432 72.25 248.964 71.7273 248.635 71.0568C248.309 70.3826 248.146 69.5985 248.146 68.7045C248.146 67.8106 248.309 67.0227 248.635 66.3409C248.964 65.6553 249.423 65.1212 250.01 64.7386C250.601 64.3523 251.29 64.1591 252.078 64.1591C252.533 64.1591 252.982 64.2348 253.425 64.3864C253.868 64.5379 254.271 64.7841 254.635 65.125C254.999 65.4621 255.288 65.9091 255.504 66.4659C255.72 67.0227 255.828 67.7083 255.828 68.5227V69.0909H249.101V67.9318H254.464C254.464 67.4394 254.366 67 254.169 66.6136C253.976 66.2273 253.699 65.9223 253.339 65.6989C252.983 65.4754 252.563 65.3636 252.078 65.3636C251.544 65.3636 251.082 65.4962 250.692 65.7614C250.305 66.0227 250.008 66.3636 249.8 66.7841C249.591 67.2045 249.487 67.6553 249.487 68.1364V68.9091C249.487 69.5682 249.601 70.1269 249.828 70.5852C250.059 71.0398 250.379 71.3864 250.788 71.625C251.197 71.8598 251.673 71.9773 252.214 71.9773C252.567 71.9773 252.885 71.928 253.169 71.8295C253.457 71.7273 253.705 71.5758 253.913 71.375C254.122 71.1705 254.283 70.9167 254.396 70.6136L255.692 70.9773C255.555 71.4167 255.326 71.803 255.004 72.1364C254.682 72.4659 254.285 72.7235 253.811 72.9091C253.338 73.0909 252.805 73.1818 252.214 73.1818ZM261.663 64.2727V65.4091H257.141V64.2727H261.663ZM258.459 62.1818H259.8V70.5C259.8 70.8788 259.855 71.1629 259.964 71.3523C260.078 71.5379 260.222 71.6629 260.396 71.7273C260.574 71.7879 260.762 71.8182 260.959 71.8182C261.107 71.8182 261.228 71.8106 261.322 71.7955C261.417 71.7765 261.493 71.7614 261.55 71.75L261.822 72.9545C261.732 72.9886 261.605 73.0227 261.442 73.0568C261.279 73.0947 261.072 73.1136 260.822 73.1136C260.444 73.1136 260.072 73.0322 259.709 72.8693C259.349 72.7064 259.05 72.4583 258.811 72.125C258.576 71.7917 258.459 71.3712 258.459 70.8636V62.1818ZM265.315 61.3636V62.3864C265.315 62.697 265.259 63.0284 265.145 63.3807C265.035 63.7292 264.872 64.0682 264.656 64.3977C264.444 64.7235 264.187 65.0076 263.884 65.25L263.156 64.6591C263.395 64.3182 263.601 63.964 263.776 63.5966C263.954 63.2254 264.043 62.8295 264.043 62.4091V61.3636H265.315ZM268.224 61.3636V62.3864C268.224 62.697 268.168 63.0284 268.054 63.3807C267.944 63.7292 267.781 64.0682 267.565 64.3977C267.353 64.7235 267.096 65.0076 266.793 65.25L266.065 64.6591C266.304 64.3182 266.51 63.964 266.685 63.5966C266.863 63.2254 266.952 62.8295 266.952 62.4091V61.3636H268.224Z" fill="black"/>
<path d="M180.385 23L180.726 21.0312L191.797 8.19602H182.788L183.232 5.54545H196.152L195.837 7.5142L184.74 20.3494H193.749L193.305 23H180.385ZM196.229 23L198.411 9.90909H201.496L199.314 23H196.229ZM200.405 8.03409C199.911 8.03409 199.501 7.86932 199.178 7.53977C198.854 7.21023 198.712 6.81534 198.751 6.35511C198.791 5.89489 198.999 5.5 199.374 5.17045C199.754 4.84091 200.189 4.67614 200.678 4.67614C201.172 4.67614 201.578 4.84091 201.896 5.17045C202.22 5.5 202.362 5.89489 202.322 6.35511C202.288 6.81534 202.081 7.21023 201.7 7.53977C201.325 7.86932 200.893 8.03409 200.405 8.03409ZM211.205 9.90909L210.805 12.2955H203.288L203.68 9.90909H211.205ZM206.049 6.77273H209.134L207.089 19.0625C207.026 19.4773 207.038 19.7955 207.123 20.017C207.214 20.233 207.359 20.3807 207.558 20.4602C207.762 20.5398 207.992 20.5795 208.248 20.5795C208.435 20.5795 208.612 20.5653 208.776 20.5369C208.941 20.5028 209.072 20.4773 209.168 20.4602L209.305 22.8722C209.117 22.929 208.864 22.9915 208.546 23.0597C208.234 23.1278 207.859 23.1676 207.421 23.179C206.637 23.196 205.955 23.0767 205.376 22.821C204.802 22.5597 204.381 22.1591 204.114 21.6193C203.853 21.0739 203.793 20.392 203.935 19.5739L206.049 6.77273ZM215.337 23.2642C214.507 23.2642 213.786 23.1165 213.172 22.821C212.558 22.5199 212.107 22.0767 211.817 21.4915C211.533 20.9062 211.462 20.1847 211.604 19.3267C211.729 18.5881 211.967 17.9773 212.32 17.4943C212.678 17.0114 213.115 16.625 213.632 16.3352C214.155 16.0398 214.723 15.8182 215.337 15.6705C215.956 15.5227 216.587 15.4148 217.229 15.3466C218.013 15.267 218.646 15.1932 219.129 15.125C219.618 15.0568 219.984 14.9545 220.229 14.8182C220.473 14.6761 220.621 14.4602 220.672 14.1705V14.1193C220.774 13.4773 220.672 12.9801 220.365 12.6278C220.058 12.2756 219.547 12.0994 218.831 12.0994C218.081 12.0994 217.45 12.2642 216.939 12.5938C216.428 12.9233 216.055 13.3125 215.822 13.7614L213.027 13.3523C213.379 12.5568 213.862 11.892 214.476 11.358C215.089 10.8182 215.797 10.4148 216.598 10.1477C217.405 9.875 218.266 9.73864 219.18 9.73864C219.805 9.73864 220.416 9.8125 221.013 9.96023C221.615 10.108 222.146 10.3523 222.607 10.6932C223.072 11.0284 223.413 11.4858 223.629 12.0653C223.851 12.6449 223.888 13.3693 223.74 14.2386L222.283 23H219.317L219.624 21.2017H219.521C219.277 21.5653 218.959 21.9062 218.567 22.2244C218.175 22.5369 217.709 22.7898 217.169 22.983C216.629 23.1705 216.018 23.2642 215.337 23.2642ZM216.504 20.9972C217.124 20.9972 217.68 20.875 218.175 20.6307C218.669 20.3807 219.075 20.0511 219.393 19.642C219.712 19.233 219.911 18.7869 219.99 18.304L220.246 16.7614C220.132 16.8409 219.956 16.9148 219.717 16.983C219.479 17.0511 219.212 17.1108 218.916 17.1619C218.626 17.2131 218.339 17.2585 218.055 17.2983C217.771 17.3381 217.527 17.3722 217.322 17.4006C216.851 17.4631 216.419 17.5653 216.027 17.7074C215.641 17.8494 215.32 18.0483 215.064 18.304C214.814 18.554 214.658 18.8778 214.595 19.2756C214.504 19.8381 214.638 20.267 214.996 20.5625C215.354 20.8523 215.857 20.9972 216.504 20.9972ZM234.104 9.90909L233.703 12.2955H226.186L226.578 9.90909H234.104ZM228.947 6.77273H232.033L229.987 19.0625C229.925 19.4773 229.936 19.7955 230.021 20.017C230.112 20.233 230.257 20.3807 230.456 20.4602C230.661 20.5398 230.891 20.5795 231.146 20.5795C231.334 20.5795 231.51 20.5653 231.675 20.5369C231.839 20.5028 231.97 20.4773 232.067 20.4602L232.203 22.8722C232.016 22.929 231.763 22.9915 231.445 23.0597C231.132 23.1278 230.757 23.1676 230.32 23.179C229.536 23.196 228.854 23.0767 228.274 22.821C227.7 22.5597 227.28 22.1591 227.013 21.6193C226.751 21.0739 226.692 20.392 226.834 19.5739L228.947 6.77273ZM240.123 23.2557C238.81 23.2557 237.725 22.983 236.867 22.4375C236.009 21.8864 235.407 21.108 235.06 20.1023C234.719 19.0909 234.663 17.9006 234.89 16.5312C235.112 15.1847 235.563 14.0028 236.245 12.9858C236.927 11.9631 237.779 11.1676 238.802 10.5994C239.83 10.0256 240.967 9.73864 242.211 9.73864C243.018 9.73864 243.759 9.86932 244.435 10.1307C245.112 10.3864 245.683 10.7841 246.148 11.3239C246.614 11.8636 246.935 12.5511 247.112 13.3864C247.288 14.2159 247.279 15.2045 247.086 16.3523L246.941 17.2983H236.202L236.535 15.2188H244.308C244.41 14.6278 244.376 14.1023 244.205 13.642C244.035 13.1761 243.751 12.8097 243.353 12.5426C242.955 12.2756 242.458 12.142 241.862 12.142C241.254 12.142 240.685 12.2983 240.157 12.6108C239.634 12.9176 239.194 13.3153 238.836 13.804C238.478 14.2926 238.251 14.8068 238.154 15.3466L237.805 17.3409C237.68 18.1591 237.708 18.8267 237.89 19.3438C238.072 19.8608 238.39 20.2415 238.844 20.4858C239.299 20.7301 239.873 20.8523 240.566 20.8523C241.021 20.8523 241.441 20.7898 241.827 20.6648C242.214 20.5398 242.558 20.3523 242.859 20.1023C243.165 19.8466 243.421 19.5341 243.626 19.1648L246.447 19.4886C246.134 20.25 245.677 20.9148 245.075 21.483C244.472 22.0455 243.751 22.483 242.91 22.7955C242.075 23.1023 241.146 23.2557 240.123 23.2557ZM250.691 23.1875C250.168 23.1875 249.737 23.0057 249.396 22.642C249.055 22.2784 248.896 21.8352 248.918 21.3125C248.941 20.8011 249.148 20.3665 249.54 20.0085C249.933 19.6506 250.384 19.4716 250.896 19.4716C251.401 19.4716 251.83 19.6534 252.183 20.017C252.54 20.3807 252.702 20.8125 252.668 21.3125C252.646 21.6648 252.538 21.983 252.344 22.267C252.157 22.5511 251.918 22.7756 251.629 22.9403C251.339 23.1051 251.026 23.1875 250.691 23.1875ZM257.652 23.1875C257.129 23.1875 256.697 23.0057 256.357 22.642C256.016 22.2784 255.857 21.8352 255.879 21.3125C255.902 20.8011 256.109 20.3665 256.501 20.0085C256.893 19.6506 257.345 19.4716 257.857 19.4716C258.362 19.4716 258.791 19.6534 259.143 20.017C259.501 20.3807 259.663 20.8125 259.629 21.3125C259.607 21.6648 259.499 21.983 259.305 22.267C259.118 22.5511 258.879 22.7756 258.589 22.9403C258.3 23.1051 257.987 23.1875 257.652 23.1875ZM264.613 23.1875C264.09 23.1875 263.658 23.0057 263.317 22.642C262.977 22.2784 262.817 21.8352 262.84 21.3125C262.863 20.8011 263.07 20.3665 263.462 20.0085C263.854 19.6506 264.306 19.4716 264.817 19.4716C265.323 19.4716 265.752 19.6534 266.104 20.017C266.462 20.3807 266.624 20.8125 266.59 21.3125C266.567 21.6648 266.46 21.983 266.266 22.267C266.079 22.5511 265.84 22.7756 265.55 22.9403C265.261 23.1051 264.948 23.1875 264.613 23.1875Z" fill="black"/>
<path d="M23.0973 128H21.62L25.8928 116.364H27.3473L31.62 128H30.1428L26.6655 118.205H26.5746L23.0973 128ZM23.6428 123.455H29.5973V124.705H23.6428V123.455ZM34.5916 122.75V128H33.2507V119.273H34.5462V120.636H34.6598C34.8643 120.193 35.175 119.837 35.5916 119.568C36.0083 119.295 36.5462 119.159 37.2053 119.159C37.7962 119.159 38.3132 119.28 38.7564 119.523C39.1996 119.761 39.5443 120.125 39.7905 120.614C40.0367 121.098 40.1598 121.712 40.1598 122.455V128H38.8189V122.545C38.8189 121.86 38.6409 121.326 38.2848 120.943C37.9287 120.557 37.4401 120.364 36.8189 120.364C36.3909 120.364 36.0083 120.456 35.6712 120.642C35.3378 120.828 35.0746 121.098 34.8814 121.455C34.6882 121.811 34.5916 122.242 34.5916 122.75ZM46.1555 128.182C45.3677 128.182 44.6764 127.994 44.0817 127.619C43.4908 127.244 43.0286 126.72 42.6953 126.045C42.3658 125.371 42.201 124.583 42.201 123.682C42.201 122.773 42.3658 121.979 42.6953 121.301C43.0286 120.623 43.4908 120.097 44.0817 119.722C44.6764 119.347 45.3677 119.159 46.1555 119.159C46.9434 119.159 47.6328 119.347 48.2237 119.722C48.8184 120.097 49.2805 120.623 49.6101 121.301C49.9434 121.979 50.1101 122.773 50.1101 123.682C50.1101 124.583 49.9434 125.371 49.6101 126.045C49.2805 126.72 48.8184 127.244 48.2237 127.619C47.6328 127.994 46.9434 128.182 46.1555 128.182ZM46.1555 126.977C46.754 126.977 47.2464 126.824 47.6328 126.517C48.0192 126.21 48.3052 125.807 48.4908 125.307C48.6764 124.807 48.7692 124.265 48.7692 123.682C48.7692 123.098 48.6764 122.555 48.4908 122.051C48.3052 121.547 48.0192 121.14 47.6328 120.83C47.2464 120.519 46.754 120.364 46.1555 120.364C45.5571 120.364 45.0646 120.519 44.6783 120.83C44.2919 121.14 44.0059 121.547 43.8203 122.051C43.6347 122.555 43.5419 123.098 43.5419 123.682C43.5419 124.265 43.6347 124.807 43.8203 125.307C44.0059 125.807 44.2919 126.21 44.6783 126.517C45.0646 126.824 45.5571 126.977 46.1555 126.977ZM53.4979 122.75V128H52.157V119.273H53.4524V120.636H53.5661C53.7706 120.193 54.0812 119.837 54.4979 119.568C54.9145 119.295 55.4524 119.159 56.1115 119.159C56.7024 119.159 57.2195 119.28 57.6626 119.523C58.1058 119.761 58.4505 120.125 58.6967 120.614C58.9429 121.098 59.0661 121.712 59.0661 122.455V128H57.7251V122.545C57.7251 121.86 57.5471 121.326 57.1911 120.943C56.835 120.557 56.3464 120.364 55.7251 120.364C55.2971 120.364 54.9145 120.456 54.5774 120.642C54.2441 120.828 53.9808 121.098 53.7876 121.455C53.5945 121.811 53.4979 122.242 53.4979 122.75ZM62.0675 131.273C61.8402 131.273 61.6375 131.254 61.4595 131.216C61.2815 131.182 61.1584 131.148 61.0902 131.114L61.4311 129.932C61.7569 130.015 62.0447 130.045 62.2947 130.023C62.5447 130 62.7663 129.888 62.9595 129.688C63.1565 129.491 63.3364 129.17 63.4993 128.727L63.7493 128.045L60.522 119.273H61.9766L64.3857 126.227H64.4766L66.8857 119.273H68.3402L64.6357 129.273C64.469 129.723 64.2625 130.097 64.0163 130.392C63.7701 130.691 63.4841 130.913 63.1584 131.057C62.8364 131.201 62.4728 131.273 62.0675 131.273ZM70.1101 128V119.273H71.4055V120.636H71.5192C71.701 120.17 71.9946 119.809 72.3999 119.551C72.8052 119.29 73.2919 119.159 73.8601 119.159C74.4358 119.159 74.915 119.29 75.2976 119.551C75.6839 119.809 75.9851 120.17 76.201 120.636H76.2919C76.5154 120.186 76.8506 119.828 77.2976 119.562C77.7446 119.294 78.2805 119.159 78.9055 119.159C79.6858 119.159 80.3241 119.403 80.8203 119.892C81.3165 120.377 81.5646 121.133 81.5646 122.159V128H80.2237V122.159C80.2237 121.515 80.0476 121.055 79.6953 120.778C79.343 120.502 78.9283 120.364 78.451 120.364C77.8374 120.364 77.362 120.549 77.0249 120.92C76.6877 121.288 76.5192 121.754 76.5192 122.318V128H75.1555V122.023C75.1555 121.527 74.9946 121.127 74.6726 120.824C74.3506 120.517 73.9358 120.364 73.4283 120.364C73.0798 120.364 72.754 120.456 72.451 120.642C72.1518 120.828 71.9093 121.085 71.7237 121.415C71.5419 121.741 71.451 122.117 71.451 122.545V128H70.1101Z" fill="#979797"/>
</svg>
